<svg width="32" height="32" viewBox="0 0 32 32" fill="none" xmlns="http://www.w3.org/2000/svg">
<path d="M25.7178 7.46008H5.88957V27.092H25.7178V7.46008Z" fill="url(#paint0_linear_72_90)"/>
<path fill-rule="evenodd" clip-rule="evenodd" d="M9.66678 3.18372C11.3984 2.79889 13.4991 2.66663 16 2.66663C18.5009 2.66663 20.6016 2.79889 22.3332 3.18372C24.08 3.57192 27.055 2.06695 28.1718 3.18372C29.2886 4.30049 28.428 7.91999 28.8163 9.66672C29.2011 11.3983 29.3333 13.499 29.3333 16C29.3333 18.5009 29.2011 20.6016 28.8163 22.3332C28.428 24.08 27.7653 25.5317 26.6485 26.6485C25.5317 27.7653 24.08 28.428 22.3332 28.8162C20.6016 29.201 18.5009 29.3333 16 29.3333C13.4991 29.3333 11.3984 29.201 9.66678 28.8162C7.92004 28.428 6.46823 27.7653 5.35146 26.6485C4.23468 25.5317 3.57198 24.08 3.18378 22.3332C2.79895 20.6016 2.66668 18.5009 2.66668 16C2.66668 13.499 2.79895 11.3983 3.18378 9.66672C3.57198 7.91999 4.23468 6.46817 5.35146 5.3514C6.46823 4.23463 7.92004 3.57192 9.66678 3.18372ZM16 7.99996C13.0545 7.99996 10.6667 10.3878 10.6667 13.3333C10.6667 16.2788 13.0545 18.6666 16 18.6666C18.9455 18.6666 21.3333 16.2788 21.3333 13.3333C21.3333 10.3878 18.9455 7.99996 16 7.99996ZM24.5033 23.0589C24.9737 23.826 24.8073 24.84 24.0492 25.3246C23.3599 25.7654 22.5544 26.0353 21.7545 26.213C20.3096 26.5341 18.4399 26.6666 15.9997 26.6666C13.5597 26.6666 11.6899 26.5341 10.2451 26.213C9.46023 26.0386 8.66942 25.7758 7.98843 25.3493C7.21664 24.866 7.04699 23.8381 7.529 23.0654C8.08406 22.1757 8.84903 21.4766 9.87844 20.9792C11.4403 20.2245 13.4876 20 15.9995 20C18.5028 20 20.5479 20.2064 22.1076 20.9396C23.1636 21.436 23.9429 22.1452 24.5033 23.0589Z" fill="#E8E8E8"/>
<g clip-path="url(#clip0_72_90)">
<path d="M25.5045 0.128052H26.275C26.6015 0.128144 26.8798 0.324472 26.9888 0.600708L27.025 0.722778L27.067 0.939575C27.2589 1.91 28.2342 2.49903 29.1832 2.29016L29.3726 2.23743L29.5865 2.16516C29.8944 2.06148 30.2272 2.15788 30.4263 2.38684L30.5025 2.49231L30.8883 3.13977C31.0443 3.40206 31.0147 3.72682 30.8209 3.95813L30.7281 4.0509L30.5562 4.19446C29.7899 4.83677 29.7421 5.96161 30.4127 6.66418L30.5562 6.79895L30.7281 6.9425C30.9684 7.14396 31.0473 7.46146 30.9439 7.7384L30.8883 7.85461L30.5025 8.5011C30.3445 8.76624 30.0317 8.90914 29.7203 8.86145L29.5865 8.82825L29.3726 8.75696V8.75598C28.4307 8.43882 27.4086 8.94764 27.1158 9.86536L27.067 10.0548L27.025 10.2706C26.958 10.6095 26.648 10.8653 26.275 10.8654H25.5045C25.178 10.8654 24.8998 10.6697 24.7906 10.3937L24.7545 10.2706L24.7115 10.0548C24.5197 9.08397 23.5446 8.49488 22.5953 8.70422L22.4068 8.75598L22.192 8.82825C21.8844 8.93183 21.5524 8.83619 21.3531 8.60754L21.276 8.5011L20.8912 7.85461C20.735 7.59231 20.7648 7.26765 20.9586 7.03625L21.0513 6.9425L21.2232 6.79895C22.0405 6.11378 22.0406 4.87953 21.2232 4.19446H21.2222L21.0513 4.0509C20.811 3.84933 20.7318 3.53206 20.8355 3.255L20.8912 3.13977L21.276 2.49231C21.434 2.2271 21.7477 2.08509 22.0592 2.13293L22.192 2.16516L22.4068 2.23743C23.3489 2.55454 24.3711 2.04603 24.6636 1.12805L24.7115 0.939575L24.7545 0.722778C24.8216 0.384056 25.1314 0.128052 25.5045 0.128052ZM25.8892 3.57727C24.8292 3.57745 23.9703 4.43709 23.9703 5.49719C23.9704 6.55714 24.8292 7.41596 25.8892 7.41614C26.9493 7.41614 27.809 6.55725 27.8092 5.49719C27.8092 4.43698 26.9494 3.57727 25.8892 3.57727Z" fill="#31715A" stroke="#E8E8E8" stroke-width="0.6"/>
</g>
<defs>
<linearGradient id="paint0_linear_72_90" x1="9.52147" y1="10.6993" x2="25.7178" y2="25.5214" gradientUnits="userSpaceOnUse">
<stop stop-color="#31715A"/>
<stop offset="1" stop-color="#5DD7AB"/>
</linearGradient>
<clipPath id="clip0_72_90">
<rect width="11.7791" height="11.7791" fill="white" transform="translate(20)"/>
</clipPath>
</defs>
</svg>
