<svg width="16" height="16" viewBox="0 0 16 16" fill="none" xmlns="http://www.w3.org/2000/svg">
<path d="M12.8589 3.7301H2.94478V13.5461H12.8589V3.7301Z" fill="url(#paint0_linear_72_82)"/>
<path fill-rule="evenodd" clip-rule="evenodd" d="M4.8334 1.59192C5.6992 1.39951 6.74955 1.33337 8.00002 1.33337C9.25048 1.33337 10.3008 1.39951 11.1666 1.59192C12.04 1.78602 13.5275 1.03353 14.0859 1.59192C14.6443 2.15031 14.214 3.96005 14.4082 4.83342C14.6006 5.69923 14.6667 6.74957 14.6667 8.00004C14.6667 9.25051 14.6006 10.3008 14.4082 11.1666C14.214 12.04 13.8827 12.7659 13.3243 13.3243C12.7659 13.8827 12.04 14.214 11.1666 14.4082C10.3008 14.6006 9.25048 14.6667 8.00002 14.6667C6.74955 14.6667 5.6992 14.6006 4.8334 14.4082C3.96003 14.214 3.23412 13.8827 2.67574 13.3243C2.11735 12.7659 1.786 12.04 1.5919 11.1666C1.39948 10.3008 1.33335 9.25051 1.33335 8.00004C1.33335 6.74957 1.39948 5.69923 1.5919 4.83342C1.786 3.96005 2.11735 3.23415 2.67574 2.67576C3.23412 2.11737 3.96003 1.78602 4.8334 1.59192ZM8.00002 4.00004C6.52726 4.00004 5.33335 5.19395 5.33335 6.66671C5.33335 8.13944 6.52726 9.33337 8.00002 9.33337C9.47275 9.33337 10.6667 8.13944 10.6667 6.66671C10.6667 5.19395 9.47275 4.00004 8.00002 4.00004ZM12.2517 11.5295C12.4869 11.913 12.4037 12.42 12.0246 12.6624C11.68 12.8828 11.2772 13.0177 10.8773 13.1066C10.1548 13.2671 9.21995 13.3334 7.99988 13.3334C6.77988 13.3334 5.84498 13.2671 5.12256 13.1066C4.73012 13.0194 4.33472 12.888 3.99422 12.6747C3.60833 12.433 3.5235 11.9191 3.76451 11.5328C4.04204 11.0879 4.42452 10.7384 4.93923 10.4896C5.72016 10.1123 6.74382 10 7.99975 10C9.25142 10 10.274 10.1032 11.0538 10.4698C11.5818 10.718 11.9715 11.0726 12.2517 11.5295Z" fill="#E8E8E8"/>
<g clip-path="url(#clip0_72_82)">
<path d="M12.7522 0.0644531H13.137C13.3002 0.0644531 13.4398 0.161877 13.4944 0.299805L13.512 0.361328L13.5335 0.469727C13.6295 0.955134 14.1174 1.24932 14.5921 1.14453L14.6858 1.11816L14.7933 1.08301C14.9472 1.03117 15.1136 1.07888 15.2132 1.19336L15.2513 1.24609L15.4436 1.56934C15.5217 1.7004 15.5072 1.86284 15.4104 1.97852L15.3636 2.02539L15.2776 2.09766C14.8948 2.41887 14.8712 2.98086 15.2063 3.33203L15.2776 3.39941L15.3636 3.47168C15.4837 3.5724 15.5237 3.73065 15.472 3.86914L15.4436 3.92676L15.2513 4.25098C15.1721 4.38345 15.0154 4.4547 14.8597 4.43066L14.7933 4.41406L14.6868 4.37793C14.2158 4.21929 13.7043 4.47373 13.5579 4.93262L13.5335 5.02734L13.512 5.13574C13.4783 5.30496 13.3234 5.43262 13.137 5.43262H12.7522C12.5889 5.43262 12.4503 5.33443 12.3958 5.19629L12.3772 5.13574L12.3558 5.02734C12.2599 4.54212 11.7726 4.24725 11.2981 4.35156L11.2034 4.37793L11.096 4.41406C10.9421 4.46589 10.7757 4.41821 10.6761 4.30371L10.638 4.25098L10.4456 3.92676C10.3677 3.79563 10.3819 3.6332 10.4788 3.51758L10.5257 3.47168L10.6116 3.39941C10.9947 3.07822 11.0182 2.5163 10.6829 2.16504L10.6116 2.09766L10.5257 2.02539C10.4056 1.92475 10.3657 1.76632 10.4173 1.62793L10.4456 1.56934L10.638 1.24609C10.717 1.11349 10.8739 1.04248 11.0296 1.06641L11.096 1.08301L11.2034 1.11816C11.6743 1.27675 12.1848 1.02312 12.3313 0.564453L12.3558 0.469727L12.3772 0.361328C12.4108 0.191967 12.5657 0.0644531 12.7522 0.0644531ZM12.9446 1.78906C12.4147 1.78915 11.9849 2.21817 11.9847 2.74805C11.9847 3.27807 12.4146 3.70792 12.9446 3.70801C13.4747 3.70801 13.9046 3.27813 13.9046 2.74805C13.9044 2.21811 13.4746 1.78906 12.9446 1.78906Z" fill="#31715A" stroke="#E8E8E8" stroke-width="0.3"/>
</g>
<defs>
<linearGradient id="paint0_linear_72_82" x1="4.76073" y1="5.34973" x2="12.8589" y2="12.7608" gradientUnits="userSpaceOnUse">
<stop stop-color="#31715A"/>
<stop offset="1" stop-color="#5DD7AB"/>
</linearGradient>
<clipPath id="clip0_72_82">
<rect width="5.88957" height="5.88957" fill="white" transform="translate(10)"/>
</clipPath>
</defs>
</svg>
