<svg width="64" height="64" viewBox="0 0 64 64" fill="none" xmlns="http://www.w3.org/2000/svg">
<path d="M51.4356 14.9203H11.7791V54.1841H51.4356V14.9203Z" fill="url(#paint0_linear_72_98)"/>
<path fill-rule="evenodd" clip-rule="evenodd" d="M19.3335 6.36756C22.7968 5.59791 26.9981 5.33337 32 5.33337C37.0019 5.33337 41.2032 5.59791 44.6664 6.36756C48.16 7.14396 54.11 4.13401 56.3436 6.36756C58.5772 8.60111 56.856 15.8401 57.6325 19.3336C58.4021 22.7968 58.6667 26.9982 58.6667 32C58.6667 37.0019 58.4021 41.2032 57.6325 44.6664C56.856 48.16 55.5307 51.0635 53.2971 53.2971C51.0635 55.5307 48.16 56.856 44.6664 57.6326C41.2032 58.4022 37.0019 58.6667 32 58.6667C26.9981 58.6667 22.7968 58.4022 19.3335 57.6326C15.8401 56.856 12.9364 55.5307 10.7029 53.2971C8.46934 51.0635 7.14393 48.16 6.36753 44.6664C5.59788 41.2032 5.33334 37.0019 5.33334 32C5.33334 26.9982 5.59788 22.7968 6.36753 19.3336C7.14393 15.8401 8.46934 12.9365 10.7029 10.7029C12.9364 8.46937 15.8401 7.14396 19.3335 6.36756ZM32 16C26.109 16 21.3333 20.7757 21.3333 26.6667C21.3333 32.5576 26.109 37.3334 32 37.3334C37.8909 37.3334 42.6667 32.5576 42.6667 26.6667C42.6667 20.7757 37.8909 16 32 16ZM49.0067 46.1179C49.9475 47.652 49.6147 49.68 48.0984 50.6494C46.7197 51.531 45.1088 52.0707 43.5091 52.4262C40.6192 53.0683 36.8797 53.3334 31.9995 53.3334C27.1195 53.3334 23.3798 53.0683 20.4902 52.4262C18.9204 52.0774 17.3388 51.5518 15.9768 50.6987C14.4333 49.732 14.094 47.6763 15.058 46.131C16.1681 44.3515 17.698 42.9534 19.7569 41.9584C22.8806 40.4491 26.9752 40 31.9989 40C37.0056 40 41.0957 40.4128 44.2152 41.8792C46.3272 42.872 47.8859 44.2904 49.0067 46.1179Z" fill="#E8E8E8"/>
<g clip-path="url(#clip0_72_98)">
<path d="M51.0089 0.106567H52.55C53.3134 0.106765 53.9618 0.598253 54.1623 1.27844L54.1964 1.41711L54.2814 1.84875C54.6599 3.76444 56.6393 4.90849 58.5158 4.38782L58.6974 4.33215L59.1261 4.1886C59.8466 3.94597 60.6313 4.20298 61.0548 4.78723L61.1349 4.90833L61.9054 6.20227C62.2758 6.82451 62.1729 7.60536 61.6603 8.11829L61.5519 8.21692L61.2091 8.505C59.6945 9.77441 59.6465 12.0268 61.0666 13.3575L61.2091 13.4825L61.5519 13.7706C62.1191 14.2461 62.2807 15.0177 61.9728 15.6593L61.9054 15.7853L61.1349 17.0792C60.7614 17.7064 59.9979 18.0178 59.2707 17.8409L59.1261 17.799L58.6974 17.6554C56.8293 17.0262 54.8036 18.0903 54.3234 19.9552L54.2814 20.1388L54.1964 20.5704C54.048 21.3215 53.3644 21.8808 52.55 21.881H51.0089C50.2452 21.881 49.5961 21.3895 49.3957 20.7091L49.3625 20.5704L49.2765 20.1378C48.8978 18.2224 46.9186 17.0789 45.0421 17.5997L44.8605 17.6554L44.4328 17.799C43.7123 18.0417 42.9267 17.7847 42.5031 17.2003L42.424 17.0792H42.423L41.6535 15.7853C41.2828 15.1628 41.3856 14.3823 41.8986 13.8693L42.006 13.7706L42.3498 13.4825C43.864 12.2131 43.911 9.96167 42.4914 8.63098L42.3498 8.505L42.006 8.21692C41.439 7.74144 41.2773 6.96974 41.5851 6.32825L41.6535 6.20227L42.424 4.90833C42.7975 4.28142 43.5603 3.96998 44.2873 4.14661L44.4328 4.1886L44.8605 4.33215C46.7286 4.96132 48.7554 3.89732 49.2355 2.03235L49.2765 1.84875L49.3625 1.41711C49.5109 0.666008 50.1942 0.106567 51.0089 0.106567ZM51.7794 7.30481C49.7419 7.30481 48.09 8.95668 48.09 10.9943C48.0902 13.0315 49.742 14.6827 51.7794 14.6827C53.8166 14.6826 55.4677 13.0314 55.4679 10.9943C55.4679 8.95678 53.8168 7.30498 51.7794 7.30481Z" fill="#31715A" stroke="#E8E8E8" stroke-width="0.9"/>
</g>
<defs>
<linearGradient id="paint0_linear_72_98" x1="19.0429" y1="21.3988" x2="51.4356" y2="51.043" gradientUnits="userSpaceOnUse">
<stop stop-color="#31715A"/>
<stop offset="1" stop-color="#5DD7AB"/>
</linearGradient>
<clipPath id="clip0_72_98">
<rect width="23.5583" height="23.5583" fill="white" transform="translate(40)"/>
</clipPath>
</defs>
</svg>
