<svg width="163" height="163" viewBox="0 0 163 163" fill="none" xmlns="http://www.w3.org/2000/svg">
<path d="M131 38H30V138H131V38Z" fill="url(#paint0_linear_71_33)"/>
<path fill-rule="evenodd" clip-rule="evenodd" d="M49.2401 16.2173C58.0605 14.2571 68.7609 13.5834 81.5 13.5834C94.2391 13.5834 104.939 14.2571 113.76 16.2173C122.658 18.1947 137.811 10.5288 143.5 16.2173C149.189 21.9059 144.805 40.3427 146.783 49.2401C148.743 58.0605 149.417 68.7609 149.417 81.5C149.417 94.2392 148.743 104.939 146.783 113.76C144.805 122.658 141.43 130.052 135.741 135.741C130.052 141.43 122.658 144.805 113.76 146.783C104.939 148.743 94.2391 149.417 81.5 149.417C68.7609 149.417 58.0605 148.743 49.2401 146.783C40.3426 144.805 32.9475 141.43 27.2589 135.741C21.5703 130.052 18.1947 122.658 16.2173 113.76C14.2571 104.939 13.5833 94.2392 13.5833 81.5C13.5833 68.7609 14.2571 58.0605 16.2173 49.2401C18.1947 40.3427 21.5703 32.9475 27.2589 27.2589C32.9475 21.5704 40.3426 18.1947 49.2401 16.2173ZM81.5 40.75C66.4963 40.75 54.3333 52.913 54.3333 67.9167C54.3333 82.9202 66.4963 95.0834 81.5 95.0834C96.5035 95.0834 108.667 82.9202 108.667 67.9167C108.667 52.913 96.5035 40.75 81.5 40.75ZM124.814 117.456C127.21 121.364 126.362 126.529 122.501 128.998C118.989 131.243 114.886 132.618 110.812 133.523C103.452 135.158 93.9281 135.833 81.4986 135.833C69.0699 135.833 59.5455 135.158 52.1859 133.523C48.188 132.634 44.1598 131.296 40.691 129.123C36.7597 126.661 35.8955 121.426 38.3508 117.49C41.1781 112.958 45.0747 109.397 50.3182 106.863C58.274 103.019 68.7025 101.875 81.4973 101.875C94.2486 101.875 104.666 102.926 112.611 106.661C117.99 109.19 121.959 112.802 124.814 117.456Z" fill="#E8E8E8"/>
<g clip-path="url(#clip0_71_33)">
<path d="M131.038 0.625H134.962C136.816 0.625 138.366 1.85742 138.773 3.5166L138.809 3.67773L139.026 4.77832C140.033 9.8706 145.286 12.896 150.253 11.5176L150.732 11.3701L151.824 11.002C153.572 10.4134 155.474 11.0818 156.434 12.5391L156.523 12.6826L158.485 15.9775C159.345 17.4207 159.109 19.2323 157.914 20.4268L157.662 20.6572L156.788 21.3896C152.768 24.7595 152.642 30.7432 156.411 34.2764L156.788 34.6104L157.662 35.3428C158.984 36.4507 159.357 38.2417 158.643 39.7295L158.485 40.0225L156.523 43.3174C155.596 44.8737 153.628 45.6046 151.824 44.9971H151.823L150.733 44.6299C145.789 42.9646 140.412 45.7785 139.137 50.7354L139.026 51.2217L138.809 52.3223C138.465 54.0621 136.875 55.375 134.962 55.375H131.038C129.184 55.375 127.634 54.1425 127.227 52.4834L127.191 52.3223L126.974 51.2217C125.967 46.1293 120.714 43.1035 115.746 44.4824L115.267 44.6299L114.176 44.9971C112.428 45.5857 110.526 44.9182 109.566 43.4609L109.477 43.3174L107.515 40.0225C106.598 38.4831 106.928 36.5245 108.338 35.3428L108.337 35.3418L109.212 34.6104C113.232 31.2404 113.358 25.2568 109.589 21.7236L109.212 21.3896L108.338 20.6572C107.016 19.5494 106.643 17.7584 107.357 16.2705L107.515 15.9775L109.477 12.6826C110.375 11.1749 112.25 10.4414 114.006 10.9492L114.176 11.0029L115.267 11.3701C120.211 13.0353 125.588 10.2213 126.863 5.26465L126.974 4.77832L127.191 3.67773C127.535 1.9379 129.125 0.625 131.038 0.625ZM133 18.25C127.615 18.25 123.25 22.6151 123.25 28C123.25 33.3847 127.615 37.75 133 37.75C138.385 37.75 142.75 33.3847 142.75 28C142.75 22.6151 138.385 18.25 133 18.25Z" fill="#31715A" stroke="#E8E8E8" stroke-width="3"/>
</g>
<defs>
<linearGradient id="paint0_linear_71_33" x1="48.5" y1="54.5" x2="131" y2="130" gradientUnits="userSpaceOnUse">
<stop stop-color="#31715A"/>
<stop offset="1" stop-color="#5DD7AB"/>
</linearGradient>
<clipPath id="clip0_71_33">
<rect width="60" height="60" fill="white" transform="translate(103)"/>
</clipPath>
</defs>
</svg>
